<?xml version="1.0" encoding="utf-8"?>
<!-- Generator: Adobe Illustrator 20.1.0, SVG Export Plug-In . SVG Version: 6.00 Build 0)  -->
<svg version="1.1" id="Layer_1" xmlns="http://www.w3.org/2000/svg" xmlns:xlink="http://www.w3.org/1999/xlink" x="0px" y="0px"
	 viewBox="0 0 242.4 37.8" style="enable-background:new 0 0 242.4 37.8;" xml:space="preserve">
<style type="text/css">
	.st0{fill:#FFFFFF;}
</style>
<g>
	<path class="st0" d="M16.7,18.2c-0.1-1-0.4-1.8-1-2.6c-0.8-1-1.9-1.5-3.5-1.5c-2.3,0-3.8,1.1-4.6,3.4C7.2,18.6,7,20.1,7,22.1
		c0,1.9,0.2,3.4,0.7,4.5c0.8,2.1,2.3,3.2,4.5,3.2c1.6,0,2.7-0.4,3.3-1.3s1.1-1.9,1.2-3.3h6.8c-0.2,2-0.9,4-2.2,5.8
		c-2.1,2.9-5.2,4.4-9.3,4.4c-4.1,0-7.1-1.2-9.1-3.7S0,26.2,0,22.3c0-4.4,1.1-7.8,3.2-10.2s5.1-3.7,8.9-3.7c3.2,0,5.8,0.7,7.9,2.2
		s3.2,4,3.6,7.6H16.7z"/>
	<path class="st0" d="M49.5,31.4c-2.2,2.7-5.4,4-9.8,4s-7.7-1.3-9.8-4c-2.2-2.7-3.2-5.9-3.2-9.6c0-3.7,1.1-6.9,3.2-9.6
		s5.4-4.1,9.8-4.1s7.7,1.4,9.8,4.1s3.2,5.9,3.2,9.6C52.7,25.6,51.6,28.8,49.5,31.4z M44.1,27.7c1-1.4,1.6-3.4,1.6-5.9
		c0-2.6-0.5-4.5-1.6-5.9s-2.5-2.1-4.5-2.1s-3.5,0.7-4.5,2.1s-1.6,3.4-1.6,5.9c0,2.6,0.5,4.5,1.6,5.9s2.6,2.1,4.5,2.1
		S43.1,29.1,44.1,27.7z"/>
	<path class="st0" d="M64.3,34.5h-6.7V0h6.7V34.5z"/>
	<path class="st0" d="M92.1,31.4c-2.2,2.7-5.4,4-9.8,4s-7.7-1.3-9.8-4c-2.2-2.7-3.2-5.9-3.2-9.6c0-3.7,1.1-6.9,3.2-9.6
		s5.4-4.1,9.8-4.1s7.7,1.4,9.8,4.1s3.2,5.9,3.2,9.6C95.3,25.6,94.3,28.8,92.1,31.4z M86.8,27.7c1-1.4,1.6-3.4,1.6-5.9
		c0-2.6-0.5-4.5-1.6-5.9s-2.5-2.1-4.5-2.1s-3.5,0.7-4.5,2.1s-1.6,3.4-1.6,5.9c0,2.6,0.5,4.5,1.6,5.9s2.6,2.1,4.5,2.1
		S85.7,29.1,86.8,27.7z"/>
	<path class="st0" d="M114.3,8.4c0.1,0,0.3,0,0.6,0v6.8c-0.4,0-0.8-0.1-1.1-0.1s-0.6,0-0.8,0c-2.7,0-4.5,0.9-5.4,2.6
		c-0.5,1-0.8,2.5-0.8,4.5v12.2h-6.7V9h6.4v4.5c1-1.7,1.9-2.9,2.7-3.5c1.2-1,2.9-1.6,4.9-1.6C114.1,8.4,114.2,8.4,114.3,8.4z"/>
	<path d="M121.6,34.5h-2.9V9.7h2.9v3.7h0.1c0.7-1.4,1.8-2.5,3.2-3.3c1.4-0.8,2.9-1.1,4.5-1.1c1.2,0,2.1,0.1,2.9,0.4
		c0.8,0.3,1.5,0.6,2,1c0.6,0.4,1,0.9,1.4,1.5c0.4,0.6,0.7,1.2,0.9,1.9c0.8-1.6,1.9-2.8,3.3-3.6c1.4-0.8,3-1.2,4.8-1.2
		c1.7,0,3,0.3,4.1,0.8c1,0.6,1.8,1.3,2.3,2.2c0.5,0.9,0.9,2,1.1,3.1c0.2,1.2,0.3,2.4,0.3,3.6v15.7h-2.9V17.4c0-1.8-0.4-3.2-1.1-4.2
		c-0.8-1-2.2-1.5-4.2-1.5c-1.1,0-2.1,0.2-3,0.7c-1,0.5-1.8,1.2-2.6,2.1c-0.3,0.4-0.6,0.9-0.8,1.5c-0.2,0.6-0.4,1.1-0.5,1.8
		c-0.1,0.6-0.2,1.2-0.3,1.8c0,0.6-0.1,1.2-0.1,1.7v13.4h-2.9V17.4c0-1.8-0.4-3.2-1.1-4.2c-0.8-1-2.2-1.5-4.2-1.5
		c-1.1,0-2.1,0.2-3,0.7c-1,0.5-1.8,1.2-2.6,2.1c-0.3,0.4-0.6,0.9-0.8,1.5c-0.2,0.6-0.4,1.1-0.5,1.8c-0.1,0.6-0.2,1.2-0.3,1.8
		c0,0.6-0.1,1.2-0.1,1.7V34.5z"/>
	<path d="M160.9,22.8c0,1.3,0.2,2.6,0.5,3.8c0.4,1.2,0.9,2.2,1.6,3.1c0.7,0.9,1.6,1.6,2.6,2.1c1.1,0.5,2.3,0.8,3.6,0.8
		c1.9,0,3.5-0.5,4.8-1.5c1.3-1,2.2-2.4,2.7-4.2h3.2c-0.4,1.2-0.8,2.3-1.4,3.3c-0.6,1-1.3,1.9-2.2,2.6c-0.9,0.8-1.9,1.3-3.1,1.8
		c-1.2,0.4-2.6,0.6-4.1,0.6c-2,0-3.7-0.3-5.1-1c-1.4-0.7-2.6-1.6-3.6-2.8c-0.9-1.2-1.6-2.5-2.1-4.1c-0.4-1.6-0.7-3.3-0.7-5.1
		c0-1.8,0.3-3.5,0.8-5.1c0.5-1.6,1.3-3,2.3-4.2c1-1.2,2.2-2.1,3.6-2.8c1.4-0.7,3-1,4.8-1c3.4,0,6.1,1.2,8.1,3.5
		c2,2.4,2.9,5.8,2.9,10.2H160.9z M177.1,20.4c0-1.2-0.2-2.4-0.5-3.4c-0.3-1.1-0.8-2-1.5-2.8c-0.7-0.8-1.5-1.4-2.5-1.9
		c-1-0.5-2.1-0.7-3.4-0.7c-1.3,0-2.4,0.2-3.4,0.7c-1,0.5-1.8,1.1-2.5,1.9c-0.7,0.8-1.2,1.7-1.7,2.8s-0.7,2.2-0.8,3.4H177.1z"/>
</g>
<g>
	<path d="M191.1,33.6h-1.2V18.7h1.2v5.9c0.4-0.7,0.9-1.2,1.6-1.5c0.7-0.3,1.4-0.5,2.2-0.5c0.8,0,1.5,0.2,2.1,0.5
		c0.6,0.3,1.1,0.7,1.5,1.2c0.4,0.5,0.7,1.1,0.9,1.8c0.2,0.7,0.3,1.4,0.3,2.2c0,0.8-0.1,1.5-0.3,2.2c-0.2,0.7-0.5,1.3-0.9,1.8
		c-0.4,0.5-0.9,0.9-1.5,1.2c-0.6,0.3-1.3,0.4-2.2,0.4c-0.3,0-0.7,0-1.1-0.1c-0.4-0.1-0.7-0.2-1-0.4s-0.6-0.4-0.9-0.7
		s-0.5-0.6-0.7-0.9h0V33.6z M191.1,28.2c0,0.6,0.1,1.3,0.2,1.8c0.2,0.6,0.4,1,0.7,1.4c0.3,0.4,0.7,0.7,1.1,1c0.5,0.2,1,0.4,1.6,0.4
		c0.5,0,1-0.1,1.4-0.3c0.4-0.2,0.8-0.5,1.2-0.8c0.3-0.4,0.6-0.8,0.8-1.3c0.2-0.5,0.3-1.1,0.3-1.8c0-0.7,0-1.3-0.2-1.9
		c-0.1-0.6-0.4-1.1-0.7-1.5c-0.3-0.4-0.7-0.8-1.2-1c-0.5-0.3-1-0.4-1.7-0.4c-0.6,0-1.1,0.1-1.5,0.4c-0.4,0.2-0.8,0.6-1.1,1
		s-0.5,0.9-0.7,1.4C191.2,27,191.1,27.6,191.1,28.2z"/>
	<path d="M202.3,36.5c0.2,0,0.3,0.1,0.5,0.1c0.2,0,0.3,0,0.5,0c0.3,0,0.6-0.1,0.8-0.3c0.2-0.2,0.4-0.5,0.5-0.8
		c0.1-0.3,0.3-0.6,0.4-1c0.1-0.3,0.2-0.6,0.3-0.9l-4.2-10.8h1.4l3.4,9.2l3.4-9.2h1.3l-4,10.6c-0.2,0.7-0.5,1.3-0.7,1.8
		c-0.2,0.5-0.5,1-0.7,1.4c-0.3,0.4-0.5,0.7-0.8,0.9s-0.7,0.3-1.1,0.3c-0.2,0-0.4,0-0.6,0s-0.4-0.1-0.5-0.1V36.5z"/>
	<path d="M218.6,20.5v-1.8h1.4v1.8H218.6z M218.6,33.6V22.9h1.2v10.7H218.6z"/>
	<path d="M224.3,33.6h-1.2V22.9h1.2v2h0c0.3-0.9,0.8-1.5,1.3-1.8c0.5-0.3,1.3-0.5,2.2-0.5v1.3c-0.7,0-1.3,0.1-1.7,0.3
		c-0.5,0.2-0.8,0.6-1.1,1c-0.3,0.4-0.5,0.9-0.6,1.4c-0.1,0.5-0.2,1.1-0.2,1.7V33.6z"/>
	<path d="M230.1,20.5v-1.8h1.4v1.8H230.1z M230.1,33.6V22.9h1.2v10.7H230.1z"/>
	<path d="M235.3,30.3c0.2,0.9,0.5,1.6,1,2c0.5,0.4,1.2,0.6,2.2,0.6c0.5,0,0.8-0.1,1.2-0.2c0.3-0.1,0.6-0.3,0.8-0.4
		c0.2-0.2,0.4-0.4,0.5-0.6c0.1-0.2,0.2-0.5,0.2-0.7c0-0.5-0.2-0.9-0.5-1.2c-0.3-0.3-0.8-0.5-1.3-0.6s-1.1-0.3-1.7-0.4
		c-0.6-0.1-1.1-0.3-1.7-0.5c-0.5-0.2-0.9-0.5-1.3-0.9c-0.3-0.4-0.5-0.9-0.5-1.6c0-0.9,0.3-1.6,1-2.2c0.7-0.6,1.6-0.9,2.8-0.9
		c1.2,0,2.1,0.3,2.8,0.8s1.2,1.4,1.3,2.6h-1.3c-0.1-0.8-0.4-1.4-0.9-1.7s-1.2-0.5-2-0.5c-0.8,0-1.4,0.2-1.8,0.5s-0.6,0.8-0.6,1.3
		c0,0.5,0.2,0.9,0.5,1.1c0.3,0.3,0.8,0.5,1.3,0.6s1.1,0.3,1.7,0.4c0.6,0.1,1.1,0.3,1.7,0.5c0.5,0.2,0.9,0.5,1.3,0.9
		c0.3,0.4,0.5,0.9,0.5,1.6c0,0.5-0.1,1-0.3,1.4c-0.2,0.4-0.5,0.7-0.9,1c-0.4,0.3-0.8,0.5-1.4,0.6c-0.5,0.1-1.1,0.2-1.8,0.2
		s-1.2-0.1-1.7-0.3c-0.5-0.2-0.9-0.4-1.3-0.8c-0.3-0.3-0.6-0.7-0.8-1.2c-0.2-0.4-0.3-0.9-0.3-1.4H235.3z"/>
</g>
</svg>
